<svg xmlns="http://www.w3.org/2000/svg" width="395.26" height="40.12" viewBox="0 0 395.26 40.12"><defs><style>.a{fill:#fff}</style></defs><title>icons-footer</title><path class="a" d="M157.36 31.45c1.13-.93 2.12-1.78 3-2.56a15.45 15.45 0 0 0 2.09-2.29 9.19 9.19 0 0 0 1.24-2.38 9 9 0 0 0 .4-2.74v-.07a7.8 7.8 0 0 0-.62-3.15 7.34 7.34 0 0 0-1.75-2.43 7.71 7.71 0 0 0-2.72-1.56 10.21 10.21 0 0 0-3.44-.56 11.79 11.79 0 0 0-3.07.37 9.62 9.62 0 0 0-2.49 1.07 9.75 9.75 0 0 0-2.08 1.7 21.61 21.61 0 0 0-1.88 2.31l3.2 2.5a14 14 0 0 1 2.86-2.9 5.19 5.19 0 0 1 3.11-1 4.32 4.32 0 0 1 3 1.05 3.69 3.69 0 0 1 1.2 2.95 5.3 5.3 0 0 1-.26 1.66 6.19 6.19 0 0 1-.85 1.58 13.42 13.42 0 0 1-1.49 1.71c-.61.6-1.36 1.26-2.25 2l-8.87 7.53v3.56h18.63v-4h-12.26zM189.6 17.1a12.93 12.93 0 0 0-4.23-2.85 13.76 13.76 0 0 0-5.45-1.05 13.38 13.38 0 0 0-9.71 3.95 12.9 12.9 0 0 0-2.8 4.24 13.36 13.36 0 0 0-1 5.13v.07a13.41 13.41 0 0 0 1 5.14 12.89 12.89 0 0 0 7 7.07 13.79 13.79 0 0 0 5.45 1 13.38 13.38 0 0 0 9.72-4 13.31 13.31 0 0 0 3.79-9.37v-.07a13.23 13.23 0 0 0-1-5.14 13 13 0 0 0-2.77-4.12zm-1 9.49a9.67 9.67 0 0 1-.64 3.54 9.05 9.05 0 0 1-1.81 2.87 8.3 8.3 0 0 1-2.73 2 8.78 8.78 0 0 1-7 0 8.67 8.67 0 0 1-2.77-2 8.81 8.81 0 0 1-1.8-2.91 10 10 0 0 1-.64-3.55v-.07a9.92 9.92 0 0 1 .64-3.54 9 9 0 0 1 1.77-2.93 8.28 8.28 0 0 1 2.73-2 8.55 8.55 0 0 1 3.5-.71 8.4 8.4 0 0 1 3.52.73 8.64 8.64 0 0 1 4.56 4.98 9.8 9.8 0 0 1 .64 3.55zm18.19 4.86c1.13-.93 2.11-1.78 3-2.56a15 15 0 0 0 2.1-2.29 8.85 8.85 0 0 0 1.23-2.38 8.43 8.43 0 0 0 .41-2.74v-.07a7.64 7.64 0 0 0-.63-3.15 7.07 7.07 0 0 0-1.75-2.43 7.57 7.57 0 0 0-2.68-1.56 10.21 10.21 0 0 0-3.44-.56 11.93 11.93 0 0 0-3.08.37 9.8 9.8 0 0 0-4.54 2.77 22.9 22.9 0 0 0-1.88 2.31l3.2 2.5a14 14 0 0 1 2.86-2.9 5.19 5.19 0 0 1 3.11-1 4.34 4.34 0 0 1 3 1.05 3.69 3.69 0 0 1 1.19 2.95 5.29 5.29 0 0 1-.25 1.66 6.19 6.19 0 0 1-.83 1.58 13.42 13.42 0 0 1-1.49 1.71c-.62.6-1.36 1.26-2.24 2l-8.88 7.53v3.56h18.63v-4h-12.34zm35-10.14a12.83 12.83 0 0 0-7-7.06 13.79 13.79 0 0 0-5.45-1.05 13.33 13.33 0 0 0-9.71 3.95 12.9 12.9 0 0 0-2.8 4.24 13.36 13.36 0 0 0-1 5.13v.07a13.41 13.41 0 0 0 1 5.14 12.89 12.89 0 0 0 7 7.07 13.75 13.75 0 0 0 5.45 1 13.57 13.57 0 0 0 5.44-1.06 13.42 13.42 0 0 0 4.28-2.85 12.9 12.9 0 0 0 2.8-4.24 13.32 13.32 0 0 0 1-5.13v-.07a13.41 13.41 0 0 0-1.01-5.14zM238 26.59a9.67 9.67 0 0 1-.64 3.54 9.05 9.05 0 0 1-1.78 2.87 8.65 8.65 0 0 1-9.75 2 8.78 8.78 0 0 1-2.77-2 9 9 0 0 1-1.79-2.91 9.76 9.76 0 0 1-.64-3.55v-.07a9.71 9.71 0 0 1 .64-3.54 9 9 0 0 1 1.78-2.93 8.18 8.18 0 0 1 2.73-2 8.55 8.55 0 0 1 3.5-.71 8.4 8.4 0 0 1 3.52.73 8.64 8.64 0 0 1 4.56 4.98 9.8 9.8 0 0 1 .64 3.55zM155.21 7.93a3.52 3.52 0 0 0 3.54-3.83c0-2.47-1.36-3.63-3.29-3.63a3.53 3.53 0 0 0-3.53 3.83c0 2.23 1.07 3.63 3.28 3.63zm.12-6.2c1.25 0 1.93.87 1.93 2.48s-1 2.46-1.95 2.46c-1.29 0-1.89-1-1.89-2.53s.92-2.41 1.91-2.41zM149 7a8.34 8.34 0 0 0-.93-.13v-1.6a3.86 3.86 0 0 0 .46 0 2.55 2.55 0 0 0 2.83-2.5c0-1.42-1-2.24-2.74-2.24h-2.84v.87c.28.05.61.1.94.13v5.29a8.21 8.21 0 0 0-.94.13v.87H149zm-1-5.31h.48c.95 0 1.36.45 1.36 1.18a1.3 1.3 0 0 1-1.44 1.27 3 3 0 0 1-.4 0zm42.6-1.1h-1.71l-2.2 6.25a2.87 2.87 0 0 0-.57.11v.87h2.72V7a5.79 5.79 0 0 0-.76-.11l.3-.86H191l.31.86a5.88 5.88 0 0 0-.75.11v.87h2.84V7a2.64 2.64 0 0 0-.56-.11zm-1.88 4.31l.63-1.73a10.93 10.93 0 0 0 .34-1.17 9.78 9.78 0 0 0 .31 1.12l.64 1.78zM183 7.93a7.13 7.13 0 0 0 2.5-.45V5l.6-.1V4h-2.91v.9a6 6 0 0 0 .91.13v1.51a2.86 2.86 0 0 1-.91.13 2.16 2.16 0 0 1-2.31-2.43 2.3 2.3 0 0 1 2.42-2.53 3.39 3.39 0 0 1 .89.11c0 .28.07.56.13.87h1.07V.75a8.11 8.11 0 0 0-2-.27 3.72 3.72 0 0 0-4 3.89A3.31 3.31 0 0 0 183 7.93zm-10.43-2.62c0 1.38.51 2.62 2.8 2.62 1.92 0 3-1 3-2.89V1.59a6.45 6.45 0 0 0 .66-.12V.59h-2.81v.88a6.5 6.5 0 0 0 .77.12V5.1c0 1.23-.46 1.68-1.53 1.68S174 6.14 174 5.23V1.59a6.5 6.5 0 0 0 .77-.12V.59h-2.87v.88a6.18 6.18 0 0 0 .67.12zm-9.04-.24c-.11-.17-.23-.36-.36-.53a2 2 0 0 0 1.7-2c0-1.48-1-2-2.62-2h-3.01v.87c.28.05.61.1.93.13v5.28a8.34 8.34 0 0 0-.93.13v.87h3v-.88a4 4 0 0 0-.66-.12v-2h.19l1.77 3h1.84v-.89l-.71-.12zm-1.48-1.25h-.49V1.71a4.36 4.36 0 0 1 .54 0c.89 0 1.3.33 1.3 1s-.5 1.11-1.35 1.11zm36.55 1.96h-1a8.7 8.7 0 0 0-.13.89h-1.39V1.59c.33 0 .66-.08.94-.13V.59h-3.26v.87c.28.05.61.1.93.13v5.23a8.34 8.34 0 0 0-.93.13v.87h4.86zm-32.04-4.05h1.1v5.09a8.34 8.34 0 0 0-.93.13v.87H170V7a8.34 8.34 0 0 0-.93-.13V1.73h1.11c0 .28.08.56.13.89h1v-2h-5.91v2h1c.09-.33.14-.62.16-.89zM124 22.86V.78c-6.36 2.52-10.32 9.22-10.32 19.41v15.55s1.32-10 10.32-12.88z"/><path class="a" d="M127.1 24.4c-3.7.74-9.13 3.71-10.72 7.89 8-9.66 24.18-.32 24.9-18.48.22-5.75.25-12.83.25-12.83a53.09 53.09 0 0 0-14.43 2.74z"/><path class="a" d="M116.71 35.27c-.58 3.85 9.36 3.95 9.36 3.95v-9.58s-8.63.7-9.36 5.63zM11.62 5.56c1.64 5.43 5.73 4.25 8.67 2.78a18.47 18.47 0 0 1 1.11-2.28A11.86 11.86 0 0 1 17 7.78c-3 .4-2.88-1-4.53-3.84S8 2.61 6.14 1.63c-.44.55-.61.75-1 1.33 1.56 1.42 5.51-.59 6.48 2.6zm36.16 4.55h-.87v1.45h-3.07V8.81h2.57V8h-2.57V5.65h3.07v1.26h.87V4.9h-5.71v.75h.8v5.91h-.8v.73h5.71v-2.18zM38 11.56h-.8V8.82h1.19a1.63 1.63 0 0 1 1.11.28 1.6 1.6 0 0 1 .3 1.16v2h1.78v-.73h-.81v-1.41a2.4 2.4 0 0 0-.2-1.12 1.24 1.24 0 0 0-.76-.49 2.37 2.37 0 0 0 1-.71 1.73 1.73 0 0 0 .29-1 1.65 1.65 0 0 0-.6-1.4 3.18 3.18 0 0 0-1.88-.45h-3.19v.75h.8v5.91h-.8v.73H38zm-.8-5.91h1.06a2.66 2.66 0 0 1 1.4.27 1.07 1.07 0 0 1 .41.94 1 1 0 0 1-.43.92 2.49 2.49 0 0 1-1.38.29H37.2zm12.52 5.84a2.33 2.33 0 0 0 .92.69 2.84 2.84 0 0 0 1.17.26 2.57 2.57 0 0 0 1.76-.62 2.05 2.05 0 0 0 .69-1.58 1.82 1.82 0 0 0-.58-1.4A4.32 4.32 0 0 0 51.84 8l-.6-.15a2.76 2.76 0 0 1-1.09-.46.89.89 0 0 1-.29-.7 1 1 0 0 1 .36-.78 1.41 1.41 0 0 1 .93-.31A1.83 1.83 0 0 1 53 7h.72V4.9H53v.65a1.72 1.72 0 0 0-.73-.55 2.64 2.64 0 0 0-1.06-.2 2.37 2.37 0 0 0-1.62.55 1.82 1.82 0 0 0-.59 1.4A1.72 1.72 0 0 0 49.48 8a3.77 3.77 0 0 0 1.61.79l.77.2a2.65 2.65 0 0 1 1.08.51 1 1 0 0 1 .33.77 1.25 1.25 0 0 1-.4.93 1.47 1.47 0 0 1-1 .37 2 2 0 0 1-1.36-.49 2.54 2.54 0 0 1-.79-1.34h-.83v2.53h.83zM34.75 10h-.91a2.6 2.6 0 0 1-.84 1.18 2.35 2.35 0 0 1-1.38.4 2.65 2.65 0 0 1-2-.83 3 3 0 0 1-.77-2.15 3.09 3.09 0 0 1 .74-2.16 2.57 2.57 0 0 1 2-.82 2.28 2.28 0 0 1 1.4.4 2.15 2.15 0 0 1 .8 1.17h.76V4.9h-.8v.69a2.29 2.29 0 0 0-1-.59 3.75 3.75 0 0 0-3.92.88 3.8 3.8 0 0 0-1 2.74 3.75 3.75 0 0 0 1.06 2.75 3.6 3.6 0 0 0 2.7 1.09 3.33 3.33 0 0 0 2.08-.65A3.18 3.18 0 0 0 34.75 10zM59 12.44a3.33 3.33 0 0 0 2.08-.65 3.18 3.18 0 0 0 1.1-1.79h-.91a2.67 2.67 0 0 1-.88 1.22 2.35 2.35 0 0 1-1.38.4 2.65 2.65 0 0 1-2-.83 3 3 0 0 1-.77-2.15 3 3 0 0 1 .76-2.2 2.56 2.56 0 0 1 2-.82 2.28 2.28 0 0 1 1.4.4 2.2 2.2 0 0 1 .8 1.17h.76V4.9h-.8v.69a2.36 2.36 0 0 0-.98-.59 3.75 3.75 0 0 0-3.92.88 3.8 3.8 0 0 0-1 2.74 3.75 3.75 0 0 0 1.06 2.75A3.57 3.57 0 0 0 59 12.44zM32.67 23.41h-2.55v-6.1h.96v-.77h-2.79v.77h.82v6.1h-.82v.76h5.28v-2.26h-.9v1.5zm7.61.76h.86v-2.59H42v-.82h-3.63v.82h1.91a2.66 2.66 0 0 1-.9 1.38 2.57 2.57 0 0 1-1.57.47 2.73 2.73 0 0 1-2.07-.87 3.34 3.34 0 0 1 0-4.41 2.72 2.72 0 0 1 2.07-.86 2.47 2.47 0 0 1 1.55.48 2.74 2.74 0 0 1 .9 1.41H41v-2.64h-.84v.78a3.13 3.13 0 0 0-1.06-.69 3.22 3.22 0 0 0-1.24-.23A3.79 3.79 0 0 0 35 17.52a3.92 3.92 0 0 0-1.1 2.84 3.88 3.88 0 0 0 1.1 2.83 3.79 3.79 0 0 0 2.81 1.13 3.43 3.43 0 0 0 1.31-.24 3.72 3.72 0 0 0 1.16-.74zm-15.2-6.86H26v-.77h-3.46v.77h.93l-2.16 6.1h-.72v.76h2.6v-.76h-.92l.6-1.82h2.61l.6 1.82h-.91v.76h2.71v-.76h-.73zm-2 3.52l.92-2.66.11-.37c0-.1.05-.21.07-.31a2.7 2.7 0 0 0 .15.61.41.41 0 0 1 0 .07l.92 2.66zm32.51 1.09a2.31 2.31 0 0 0-.22-1.19 1.32 1.32 0 0 0-.77-.5 2.48 2.48 0 0 0 1-.73 1.7 1.7 0 0 0 .31-1.05 1.67 1.67 0 0 0-.64-1.45 3.24 3.24 0 0 0-1.94-.47h-3.26v.77h.83v6.1h-.83v.76h2.67v-.76h-.83v-2.82h1.22a1.63 1.63 0 0 1 1.14.29 1.65 1.65 0 0 1 .31 1.2v2.1h1.85v-.76h-.84zm-1.17-2.41a2.61 2.61 0 0 1-1.42.3h-1.09v-2.5H53a2.69 2.69 0 0 1 1.44.28 1.11 1.11 0 0 1 .42 1 1.07 1.07 0 0 1-.44.92zm-9.86 2.08h2.61l.6 1.82h-.91v.76h2.71v-.76h-.73l-2.07-6.1h.94v-.77h-3.48v.77h.93L43 23.41h-.72v.76h2.6v-.76H44zm1.15-3.42l.11-.37c0-.1 0-.21.07-.31a2.7 2.7 0 0 0 .15.61.41.41 0 0 1 0 .07l.96 2.66h-2.2zm23.65 3.74h-.89v1.5H65.3v-2.84h2.65v-.84H65.3v-2.42h3.17v1.3h.89v-2.07h-5.89v.77h.82v6.1h-.82v.76h5.89v-2.26zm-9.1-4.6h.84l-1.63 4.99-1.56-4.99h.75v-.77h-2.52v.77h.74l2.26 6.99h.61l2.3-6.99h.75v-.77h-2.54v.77zM55.3 28.1a2 2 0 0 0-.81-.8 2.34 2.34 0 0 0-1.14-.3 2.38 2.38 0 0 0-1.15.27 2.05 2.05 0 0 0-.8.8 2.17 2.17 0 0 0-.26.66 6.73 6.73 0 0 0-.07 1.18v1.88a6.73 6.73 0 0 0 .07 1.21 2.39 2.39 0 0 0 .26.66 2 2 0 0 0 .81.81 2.34 2.34 0 0 0 1.14.27 2.24 2.24 0 0 0 1.24-.34 2.12 2.12 0 0 0 .81-1 2.05 2.05 0 0 0 .16-.55 5.76 5.76 0 0 0 0-.82v-2.31a6 6 0 0 0-.07-1 2.17 2.17 0 0 0-.19-.62zm-.62 3.7a6.09 6.09 0 0 1 0 .87 1.51 1.51 0 0 1-.15.48 1.38 1.38 0 0 1-.47.54 1.34 1.34 0 0 1-.68.19 1.29 1.29 0 0 1-.68-.19 1.3 1.3 0 0 1-.47-.54 1.53 1.53 0 0 1-.14-.47 6 6 0 0 1 0-.88V30a5.84 5.84 0 0 1 0-.87 1.51 1.51 0 0 1 .14-.48 1.3 1.3 0 0 1 .48-.53 1.2 1.2 0 0 1 .67-.2 1.23 1.23 0 0 1 .74.24 1.29 1.29 0 0 1 .47.63 1.6 1.6 0 0 1 .1.43 7.08 7.08 0 0 1 0 .78zm-10.56-3.7a2.05 2.05 0 0 0-.8-.8 2.41 2.41 0 0 0-1.15-.3 2.34 2.34 0 0 0-1.17.3 2.14 2.14 0 0 0-.81.8 1.93 1.93 0 0 0-.25.66 6.5 6.5 0 0 0-.08 1.18v1.88A6.5 6.5 0 0 0 40 33a2.1 2.1 0 0 0 .25.66 2.17 2.17 0 0 0 .81.81 2.34 2.34 0 0 0 1.14.27 2.28 2.28 0 0 0 1.25-.34 2 2 0 0 0 .8-1 2.51 2.51 0 0 0 .17-.55 6 6 0 0 0 0-.82v-2.31a5 5 0 0 0-.07-1 2.17 2.17 0 0 0-.23-.62zm-.62 3.7a6.09 6.09 0 0 1 0 .87 1.51 1.51 0 0 1-.15.48 1.24 1.24 0 0 1-1.15.73 1.25 1.25 0 0 1-.67-.19 1.4 1.4 0 0 1-.48-.54 1.86 1.86 0 0 1-.14-.47 6.35 6.35 0 0 1 0-.88V30a6.18 6.18 0 0 1 0-.87 1.83 1.83 0 0 1 .14-.48 1.3 1.3 0 0 1 .48-.53 1.2 1.2 0 0 1 .67-.2 1.21 1.21 0 0 1 .74.24 1.29 1.29 0 0 1 .47.63 1.6 1.6 0 0 1 .1.43 7.08 7.08 0 0 1 0 .78zm5.68 2.04h-2.57l2.6-3a3.61 3.61 0 0 0 .6-.92A2.27 2.27 0 0 0 50 29a1.84 1.84 0 0 0-.59-1.43A2.14 2.14 0 0 0 47.9 27a2.29 2.29 0 0 0-1.74.64 2.6 2.6 0 0 0-.6 1.84v.41h.9a.66.66 0 0 1 0-.15v-.23a2 2 0 0 1 .34-1.26 1.23 1.23 0 0 1 1-.41 1.34 1.34 0 0 1 .91.29 1 1 0 0 1 .33.81 2 2 0 0 1-.14.72 2.72 2.72 0 0 1-.42.68l-3 3.54v.71h4.62v-2.1h-.92zm-11.18 0h-2.57l2.6-3a4 4 0 0 0 .61-.92 2.43 2.43 0 0 0 .19-.94 1.87 1.87 0 0 0-.58-1.43 2.16 2.16 0 0 0-1.52-.55 2.26 2.26 0 0 0-1.74.64 2.56 2.56 0 0 0-.61 1.84v.41h.9v-.38a2 2 0 0 1 .33-1.26 1.23 1.23 0 0 1 1-.41 1.34 1.34 0 0 1 .91.29 1 1 0 0 1 .33.81 1.78 1.78 0 0 1-.14.72 2.24 2.24 0 0 1-.42.68l-3 3.54v.71h4.58v-2.1H38z"/><path class="a" d="M9.91 23.35c.56-.84 1-1.54 3.31.2a4.31 4.31 0 0 0 5.32-.5c-.1-.64-.17-1.29-.23-1.95a3.76 3.76 0 0 1-4.43.87 8.92 8.92 0 0 0-1.82-1.13c.11-.15.22-.29.33-.46.59-.95 1.16-2 1.74-3a8.09 8.09 0 0 1 4.09 1.12c0-.63 0-1.25.08-1.87a9.66 9.66 0 0 0-3.07-1 17.55 17.55 0 0 1 2-2.59 11 11 0 0 1 1.36 1.11c.1-.59.22-1.18.36-1.76s.26-1 .4-1.49a2.9 2.9 0 0 0-2 .12 5 5 0 0 0-1.25-.51c-2-.55-6.52 1.65-7.51-.53-.6-1.34-1-2.72-2.45-3.57a3.08 3.08 0 0 0-3.26.16 28.69 28.69 0 0 0-1.16 2.74C2.88 8 4.46 7.34 5.48 8.13s1.25 2.06 1.59 2.95c1.27 3.39 6 .64 8.55 1.21a17.21 17.21 0 0 0-2.62 3.3l-.54.05c-2 .25-3.83-.92-4.6.06-.97 1.17-1.86 3.83-2.57 2.15-.28-.65-.71-1.44-1.7-1.44a20.76 20.76 0 0 0-3.13-2.56C.35 14.43.27 15 .2 15.61a12.4 12.4 0 0 1 1.29 1.17c-.5.13-1 .29-1.44.45v2.03A9.3 9.3 0 0 1 3 18.44c.14.19.28.38.4.56 1.4 2.06 3.31 3.55 5.16 3.69a2 2 0 0 1-1.71.87c-2.09 0-5.15-2.43-6.78-3.84 0 .69.07 1.38.14 2.06 1.62 1.61 5.23 3.61 6.64 3.61a3.48 3.48 0 0 0 3.06-2.04zm-1.34-5.9c.5-.85 1.77 0 3.29 0-.27.49-.49.89-.65 1.14-1.61 2.53-3.1 2.24-4.43 1.16a8.77 8.77 0 0 0 1.79-2.3zm4.96 15.38a7.11 7.11 0 0 1 .59-1.57A20.5 20.5 0 0 1 16 29.85h.15a15.93 15.93 0 0 1 4.86 1c-.28-.57-.55-1.15-.79-1.74-.17-.43-.33-.85-.49-1.29-.24-.68-.46-1.37-.64-2.08l-1.31.82a6.13 6.13 0 0 0-2.64-.8c-1.27-.06-2.69.53-3.79.42-3.09-.31-5.43-1-6.21 3.91a7 7 0 0 0-2.38.72c.15.3.32.6.48.89l.15.26.2.37c.18.33.37.67.57 1a2.2 2.2 0 0 0 2.13-1.43 9.53 9.53 0 0 1 3.76 1.1 19 19 0 0 1-3.7 3.31q.48.57 1 1.11a10.61 10.61 0 0 0 2.81-2.18c.47-.53.9-1 1.32-1.44-.07.4-.13.83-.19 1.29a8.1 8.1 0 0 1-2.18 4.06q.55.49 1.14 1A5.91 5.91 0 0 0 13 35.88c0-.38.08-.73.13-1.06 2.8 1.43 5.79-.37 9.29-1.42-.32-.52-.64-1-.93-1.58-2.33.84-5.32 2.46-7.96 1.01zm-2.22-5c1.81.05 2.79-.65 4.21-.32l.52.15-.64.44c-1.58 0-2.51.68-3.16 2.5-.34.31-.66.64-1 1A12.8 12.8 0 0 0 6.68 30c.64-3.08 2.32-2.23 4.63-2.16zM82.68 1.39C82.33 1 82 .56 81.57.16L69.76 6.83c.24.48.47 1 .68 1.47zM72.19 14.36l15.43-4.15c-.17-.52-.36-1-.56-1.53l-15.19 4.09c.13.52.23 1.05.32 1.59zm-.64 11.8l15.16 3.65c.22-.5.42-1 .61-1.52l-15.38-3.7c-.11.53-.24 1.06-.39 1.57zm-.06-14.88l14-5.8c-.27-.47-.56-.94-.86-1.4L71 9.73c.17.51.34 1.03.49 1.55zm1.03 6.12l16.24-2.32c-.07-.53-.16-1.07-.27-1.59l-16.1 2.3c.06.53.1 1.07.13 1.61zm-.32 5.82L88.33 25c.12-.53.22-1.06.31-1.6l-16.22-1.79c-.05.54-.13 1.07-.22 1.61zM70.59 29l13.72 5.11c.31-.45.6-.92.89-1.39l-14.06-5.23c-.14.51-.35 1.02-.55 1.51zm-1.42 3l11.7 6.26c.4-.39.79-.8 1.17-1.21l-12.12-6.51c-.24.46-.48.96-.75 1.46zM89 18.36l-16.46.23a2 2 0 0 1 0 .25v1.37L89 20v-1.64zm246.2-5.84a6.23 6.23 0 0 1 0 .78.64.64 0 0 1-.25.4.9.9 0 0 1-.59.16 1 1 0 0 1-.62-.17.72.72 0 0 1-.28-.45 4.21 4.21 0 0 1 0-.77V10h-.93v2.46a5.62 5.62 0 0 0 .09 1.17 1.24 1.24 0 0 0 .26.51 1.41 1.41 0 0 0 .54.4 2.59 2.59 0 0 0 1 .15 2.44 2.44 0 0 0 .89-.14 1.28 1.28 0 0 0 .54-.38 1.22 1.22 0 0 0 .28-.57 6.2 6.2 0 0 0 .08-1.18V10h-.93zm5.58-2.55h-.87v3.08l-1.89-3.08h-.9v4.61h.86v-3.01l1.86 3.01h.94V9.97zm.95 0h.93v4.61h-.93zm4.13.03h-1l-1.8 4.61h1l.38-1.05h1.84l.4 1.05h1zm-1.12 2.79l.62-1.71.63 1.71zm-.1-3.07a.32.32 0 0 1 .06-.22.2.2 0 0 1 .15-.06 1.56 1.56 0 0 1 .43.11 2.43 2.43 0 0 0 .36.13.75.75 0 0 0 .21 0 .5.5 0 0 0 .4-.18 1 1 0 0 0 .16-.61H346a.29.29 0 0 1-.09.21.21.21 0 0 1-.17.07 1.17 1.17 0 0 1-.39-.11 2.45 2.45 0 0 0-.34-.14.68.68 0 0 0-.21 0 .57.57 0 0 0-.41.17.78.78 0 0 0-.16.51.57.57 0 0 0 0 .12zm7.23.8a2.15 2.15 0 0 0-1.63-.63 2.57 2.57 0 0 0-1 .18 1.72 1.72 0 0 0-.6.42 2.43 2.43 0 0 0-.43.63 2.93 2.93 0 0 0-.21 1.18 2.36 2.36 0 0 0 .61 1.73 2.42 2.42 0 0 0 3.26 0 2.43 2.43 0 0 0 .61-1.75 2.44 2.44 0 0 0-.61-1.76zm-.7 2.94a1.26 1.26 0 0 1-1.84 0 1.73 1.73 0 0 1-.36-1.19 1.78 1.78 0 0 1 .35-1.19 1.21 1.21 0 0 1 .93-.39 1.19 1.19 0 0 1 .93.39 1.73 1.73 0 0 1 .34 1.18 1.77 1.77 0 0 1-.35 1.2zm7.34.34h-2.58v-1.25h2.32v-.78h-2.32v-1.02h2.49v-.78H355v4.61h3.51v-.78zm1.13.31a1.5 1.5 0 0 0 .54.4 2.59 2.59 0 0 0 1 .15 2.44 2.44 0 0 0 .89-.14 1.28 1.28 0 0 0 .54-.38 1.22 1.22 0 0 0 .28-.57 6.2 6.2 0 0 0 .08-1.18V10H362v2.55a6.23 6.23 0 0 1 0 .78.64.64 0 0 1-.25.4.9.9 0 0 1-.59.16 1 1 0 0 1-.62-.17.72.72 0 0 1-.28-.45 4.21 4.21 0 0 1 0-.77V10h-.93v2.46a5.62 5.62 0 0 0 .09 1.17 1.24 1.24 0 0 0 .22.48zm7.36-1.18a1.93 1.93 0 0 0-.49-.38 1.47 1.47 0 0 0 .91-.43 1.39 1.39 0 0 0 .1-1.58 1 1 0 0 0-.53-.44 3.2 3.2 0 0 0-1.08-.13h-2v4.61h.93v-1.92h.19a1.38 1.38 0 0 1 .47.05.7.7 0 0 1 .28.19 6 6 0 0 1 .49.68l.67 1h1.12l-.57-.9a4.42 4.42 0 0 0-.49-.75zm-1.43-1h-.69v-1.18h1.41a.52.52 0 0 1 .35.18.55.55 0 0 1 .12.37.63.63 0 0 1-.09.35.46.46 0 0 1-.26.19 3.37 3.37 0 0 1-.84.08zm7.31.35a2.43 2.43 0 0 0-.61-1.76 2.17 2.17 0 0 0-1.63-.63 2.53 2.53 0 0 0-1 .18 1.72 1.72 0 0 0-.6.42 2.43 2.43 0 0 0-.43.63 2.93 2.93 0 0 0-.21 1.18 2.36 2.36 0 0 0 .6 1.7 2.42 2.42 0 0 0 3.26 0 2.43 2.43 0 0 0 .62-1.72zm-1.32 1.18a1.14 1.14 0 0 1-.91.4 1.18 1.18 0 0 1-.92-.4 1.73 1.73 0 0 1-.36-1.19 1.78 1.78 0 0 1 .35-1.19 1.21 1.21 0 0 1 .93-.39 1.17 1.17 0 0 1 .92.39 1.68 1.68 0 0 1 .35 1.18 1.72 1.72 0 0 1-.36 1.2zm2.98-.62h.61a6 6 0 0 0 1-.06 1.47 1.47 0 0 0 .48-.22 1.18 1.18 0 0 0 .39-.46 1.52 1.52 0 0 0 .15-.71 1.48 1.48 0 0 0-.26-.9 1.22 1.22 0 0 0-.67-.45 5.07 5.07 0 0 0-1.1-.07h-1.5v4.61h.93zm0-2.09h.46a4.64 4.64 0 0 1 .67 0 .68.68 0 0 1 .33.25.57.57 0 0 1 .14.41.61.61 0 0 1-.1.36.66.66 0 0 1-.29.23 2.42 2.42 0 0 1-.74.07h-.51zm6.87 3.05h-2.57v-1.25h2.31v-.78h-2.31v-1.02h2.49v-.78h-3.42v4.61h3.5v-.78zm.76-3.83h.93v4.61h-.93zm4.97 4.61h1L386.3 10h-1l-1.8 4.61h1l.38-1.05h1.85zm-2-1.82l.62-1.71.64 1.71zm-52.62 17.08h.61v-2.09h2.16v-.55h-2.16v-1.43h2.5v-.54h-3.11v4.61zm5.96-1.55a1.58 1.58 0 0 1-.1.65.72.72 0 0 1-.31.36.91.91 0 0 1-.48.13.69.69 0 0 1-.43-.13.56.56 0 0 1-.22-.35 2.63 2.63 0 0 1 0-.6V26.5h-.57v2.07a3.07 3.07 0 0 0 0 .53 1 1 0 0 0 .17.42.94.94 0 0 0 .38.28 1.34 1.34 0 0 0 .56.12 1.23 1.23 0 0 0 1.06-.57v.49h.5V26.5h-.56zm3.96-1.47a.86.86 0 0 0-.38-.28 1.3 1.3 0 0 0-.56-.11 1.19 1.19 0 0 0-1.06.55v-.48h-.51v3.34h.57V28a1.1 1.1 0 0 1 .26-.87.87.87 0 0 1 .62-.23.74.74 0 0 1 .4.1.54.54 0 0 1 .23.27 1.41 1.41 0 0 1 .07.52v2h.56v-2a3.37 3.37 0 0 0 0-.55 1.13 1.13 0 0 0-.2-.42zm3.2.07a1.24 1.24 0 0 0-.38-.34 1.19 1.19 0 0 0-.54-.12 1.39 1.39 0 0 0-.75.21 1.44 1.44 0 0 0-.5.63 2.38 2.38 0 0 0-.16.91 2.13 2.13 0 0 0 .18.9 1.45 1.45 0 0 0 .52.62 1.36 1.36 0 0 0 .73.22 1 1 0 0 0 .94-.5v.42h.52v-4.61h-.56zm-.21 2.26a.81.81 0 0 1-1.27 0 1.44 1.44 0 0 1-.27-.95 1.54 1.54 0 0 1 .25-1 .8.8 0 0 1 .63-.3.78.78 0 0 1 .65.32 1.53 1.53 0 0 1 .27 1 1.41 1.41 0 0 1-.26.93zm3.02-2.72a1.55 1.55 0 0 0-1.05.37 1.69 1.69 0 0 0-.52 1.37 1.83 1.83 0 0 0 .43 1.3 1.51 1.51 0 0 0 1.14.45 1.63 1.63 0 0 0 .81-.21 1.34 1.34 0 0 0 .56-.57 2.19 2.19 0 0 0 .19-1 1.67 1.67 0 0 0-.44-1.25 1.48 1.48 0 0 0-1.12-.46zm.7 2.7a.88.88 0 0 1-.7.32.9.9 0 0 1-.71-.32 1.45 1.45 0 0 1-.28-1 1.47 1.47 0 0 1 .28-1 .92.92 0 0 1 .71-.31.9.9 0 0 1 .7.31 1.39 1.39 0 0 1 .28.94 1.43 1.43 0 0 1-.28 1.06zm6.06-1.72a6.08 6.08 0 0 0-1-.29 2.39 2.39 0 0 1-.92-.33.52.52 0 0 1-.18-.41.62.62 0 0 1 .26-.49 1.3 1.3 0 0 1 .8-.2 1.24 1.24 0 0 1 .81.22 1 1 0 0 1 .32.66h.58a1.34 1.34 0 0 0-.23-.73 1.31 1.31 0 0 0-.6-.48 2.29 2.29 0 0 0-.9-.17 2.15 2.15 0 0 0-.85.16 1.27 1.27 0 0 0-.58.46 1.17 1.17 0 0 0-.19.65 1.06 1.06 0 0 0 .16.58 1.3 1.3 0 0 0 .49.43 4.28 4.28 0 0 0 .89.28c.42.11.7.18.82.23a1 1 0 0 1 .42.27.66.66 0 0 1 0 .77.82.82 0 0 1-.4.29 1.63 1.63 0 0 1-.61.1 1.76 1.76 0 0 1-.71-.13 1 1 0 0 1-.46-.36 1.33 1.33 0 0 1-.2-.57l-.57.05a1.59 1.59 0 0 0 .25.83 1.46 1.46 0 0 0 .67.55 2.67 2.67 0 0 0 1.05.18 2.1 2.1 0 0 0 .88-.18 1.34 1.34 0 0 0 .61-.51 1.24 1.24 0 0 0 .21-.69 1.14 1.14 0 0 0-.19-.66 1.47 1.47 0 0 0-.63-.51zm2.91-.98a1.51 1.51 0 0 0-1.05.37 1.69 1.69 0 0 0-.52 1.37 1.79 1.79 0 0 0 .43 1.3 1.51 1.51 0 0 0 1.14.45 1.57 1.57 0 0 0 .8-.21 1.31 1.31 0 0 0 .57-.57 2.19 2.19 0 0 0 .19-1 1.72 1.72 0 0 0-.44-1.25 1.48 1.48 0 0 0-1.12-.46zm.7 2.7a.94.94 0 0 1-1.41 0 1.45 1.45 0 0 1-.28-1 1.47 1.47 0 0 1 .28-1 1 1 0 0 1 1.41 0 1.44 1.44 0 0 1 .28.94 1.49 1.49 0 0 1-.28 1.06zm3.42.12a.82.82 0 0 1-.56.2.85.85 0 0 1-.67-.3 1.53 1.53 0 0 1-.26-1 1.44 1.44 0 0 1 .27-1 .86.86 0 0 1 .69-.31.77.77 0 0 1 .49.17 1 1 0 0 1 .28.51l.55-.09a1.33 1.33 0 0 0-.45-.78 1.39 1.39 0 0 0-.89-.27 1.55 1.55 0 0 0-.79.2 1.22 1.22 0 0 0-.55.61 2.28 2.28 0 0 0-.18.94 1.82 1.82 0 0 0 .42 1.29 1.41 1.41 0 0 0 1.1.45 1.35 1.35 0 0 0 .92-.33 1.43 1.43 0 0 0 .47-.9l-.56-.07a1 1 0 0 1-.28.68zm1.33-2.75h.57v3.34h-.57zm0-1.27h.57v.65h-.57zm4.13 3.21v-.75a2.94 2.94 0 0 0 0-.52.79.79 0 0 0-.18-.39.82.82 0 0 0-.39-.25 1.94 1.94 0 0 0-.69-.1 2.49 2.49 0 0 0-.76.11 1.11 1.11 0 0 0-.5.34 1.34 1.34 0 0 0-.25.58l.55.07a.91.91 0 0 1 .28-.49 1 1 0 0 1 .6-.14.92.92 0 0 1 .64.19.6.6 0 0 1 .16.49v.14a5.2 5.2 0 0 1-1 .2 5.08 5.08 0 0 0-.51.08 1.34 1.34 0 0 0-.4.19 1 1 0 0 0-.3.32 1 1 0 0 0-.11.45.89.89 0 0 0 .3.69 1.2 1.2 0 0 0 .85.27 1.8 1.8 0 0 0 .62-.11 2.13 2.13 0 0 0 .6-.38 1.17 1.17 0 0 0 .12.41h.59a1.19 1.19 0 0 1-.14-.4 6.72 6.72 0 0 1-.08-1zm-.57-.07a1.41 1.41 0 0 1-.09.57.84.84 0 0 1-.38.39 1.11 1.11 0 0 1-.58.14.73.73 0 0 1-.5-.15.45.45 0 0 1-.17-.37.5.5 0 0 1 .07-.27.62.62 0 0 1 .23-.19 2 2 0 0 1 .49-.11 4.67 4.67 0 0 0 .93-.21zm1.43-3.14h.57v4.61h-.57zm3.93 2.5h2.55v-.54h-2.55v-1.42h2.73v-.54h-3.34v4.61h3.44v-.54h-2.83v-1.57zm5.73.56a1.8 1.8 0 0 1-.09.65.74.74 0 0 1-.32.36.88.88 0 0 1-.47.13.67.67 0 0 1-.43-.13.57.57 0 0 1-.23-.35 3.77 3.77 0 0 1 0-.6V26.5h-.57v2.07a2.3 2.3 0 0 0 0 .53 1 1 0 0 0 .17.42.88.88 0 0 0 .38.28 1.3 1.3 0 0 0 .55.12 1.22 1.22 0 0 0 1.06-.57v.49h.51V26.5h-.57zm2.32-1.75a1.41 1.41 0 0 0-.36.47v-.51h-.51v3.34h.56v-1.75a2.28 2.28 0 0 1 .1-.66.62.62 0 0 1 .21-.31.57.57 0 0 1 .33-.11.84.84 0 0 1 .42.12l.19-.52a1.09 1.09 0 0 0-.58-.18.59.59 0 0 0-.36.11zm2.64-.11a1.51 1.51 0 0 0-1.05.37 1.69 1.69 0 0 0-.52 1.37 1.79 1.79 0 0 0 .43 1.3 1.51 1.51 0 0 0 1.14.45 1.57 1.57 0 0 0 .8-.21 1.31 1.31 0 0 0 .57-.57 2.33 2.33 0 0 0 .19-1 1.72 1.72 0 0 0-.44-1.25 1.48 1.48 0 0 0-1.12-.46zm.7 2.7a.94.94 0 0 1-1.41 0 1.39 1.39 0 0 1-.28-1 1.41 1.41 0 0 1 .28-1 1 1 0 0 1 1.41 0 1.44 1.44 0 0 1 .28.94 1.49 1.49 0 0 1-.28 1.06zm3.76-2.48a1.3 1.3 0 0 0-.75-.22 1.19 1.19 0 0 0-.56.12 1.37 1.37 0 0 0-.41.39v-.44h-.52v4.62h.6V29.5a1.11 1.11 0 0 0 .37.3 1.07 1.07 0 0 0 .51.12 1.41 1.41 0 0 0 .73-.22 1.39 1.39 0 0 0 .54-.63 2.25 2.25 0 0 0 .18-.92 2.3 2.3 0 0 0-.16-.88 1.35 1.35 0 0 0-.53-.62zm-.19 2.48a.8.8 0 0 1-1.27 0 1.4 1.4 0 0 1-.26-.95 1.53 1.53 0 0 1 .27-1 .81.81 0 0 1 .64-.34.79.79 0 0 1 .63.32 1.44 1.44 0 0 1 .26.95 1.5 1.5 0 0 1-.27 1.02zm2.91-2.7a1.46 1.46 0 0 0-1.13.46 1.85 1.85 0 0 0-.43 1.31 1.8 1.8 0 0 0 .42 1.27 1.55 1.55 0 0 0 1.17.45 1.51 1.51 0 0 0 .95-.29 1.44 1.44 0 0 0 .52-.79l-.59-.07a1.09 1.09 0 0 1-.35.52.84.84 0 0 1-.53.16 1 1 0 0 1-.7-.29 1.33 1.33 0 0 1-.31-.84h2.49v-.15a1.84 1.84 0 0 0-.42-1.29 1.43 1.43 0 0 0-1.09-.45zm-.95 1.42a1 1 0 0 1 .3-.7.89.89 0 0 1 .65-.26.86.86 0 0 1 .7.33 1.14 1.14 0 0 1 .22.63zm5.29-1.35v1.79a1.77 1.77 0 0 1-.1.65.72.72 0 0 1-.31.36.91.91 0 0 1-.48.13.69.69 0 0 1-.43-.13.62.62 0 0 1-.23-.35 3.77 3.77 0 0 1 0-.6V26.5h-.57v2.07a3.07 3.07 0 0 0 0 .53 1 1 0 0 0 .17.42.94.94 0 0 0 .38.28 1.31 1.31 0 0 0 .56.12 1.23 1.23 0 0 0 1.06-.57v.49h.5V26.5zM267.39 40.12h59.88V0h-59.88zM268 .59h58.71v38.94H268z"/><path class="a" d="M296.07 8.91l1.25-.92 1.25.92-.47-1.48 1.27-.91h-1.57l-.48-1.5-.48 1.5h-1.56l1.27.91-.48 1.48zm-6.47 1.74l1.25-.92 1.25.92-.48-1.48 1.27-.91h-1.57l-.47-1.5-.48 1.5h-1.57l1.27.91-.47 1.48zm-3.49.86l-.48 1.5h-1.57l1.27.91-.47 1.47 1.25-.91 1.25.91-.48-1.47 1.27-.91h-1.56l-.48-1.5zm-1.74 9.44l1.25.91-.47-1.47 1.27-.92h-1.57l-.48-1.5-.48 1.5h-1.56l1.27.92-.48 1.47 1.25-.91zm2.22 5.01l-.48-1.5-.48 1.5h-1.57l1.27.91-.47 1.48 1.25-.92 1.25.92-.48-1.48 1.27-.91h-1.56zm4.74 4.74l-.47-1.49-.48 1.5-1.57-.01 1.27.92-.47 1.47 1.25-.91 1.25.91-.48-1.47 1.27-.92h-1.57zm6.47 1.72l-.48-1.49-.48 1.5-1.56-.01 1.27.92-.48 1.47 1.25-.91 1.25.91-.47-1.47 1.27-.92h-1.57zm6.47-1.72l-.48-1.49-.48 1.5-1.57-.01 1.27.92-.47 1.47 1.25-.91 1.25.91-.48-1.47 1.27-.92h-1.56zm4.75-4.74l-.48-1.5-.48 1.5h-1.57l1.27.91-.47 1.48 1.25-.92 1.25.92-.48-1.48 1.27-.91h-1.56zm1.72-6.51l-.49-1.49-.47 1.5-1.57-.01 1.27.92-.47 1.47 1.24-.91 1.26.91-.48-1.47 1.27-.92h-1.56zm-3.45-4.08l1.25-.91 1.25.91-.48-1.47 1.27-.91h-1.56l-.48-1.5-.48 1.5h-1.57l1.27.91-.47 1.47zm-3.48-8.61l-.48 1.5h-1.57l1.27.91-.47 1.48 1.25-.92 1.25.92-.48-1.48 1.27-.91h-1.56l-.48-1.5z"/></svg>