<svg xmlns="http://www.w3.org/2000/svg" width="395.26" height="40.12" viewBox="0 0 395.26 40.12"><defs><style>.a{fill:#fff;}</style></defs><title>icons-footer</title><path class="a" d="M157.36,31.45c1.13-.93,2.12-1.78,3-2.56a15.45,15.45,0,0,0,2.09-2.29,9.19,9.19,0,0,0,1.24-2.38,9,9,0,0,0,.4-2.74v-.07a7.8,7.8,0,0,0-.62-3.15,7.34,7.34,0,0,0-1.75-2.43A7.71,7.71,0,0,0,159,14.27a10.21,10.21,0,0,0-3.44-.56,11.79,11.79,0,0,0-3.07.37A9.62,9.62,0,0,0,150,15.15a9.75,9.75,0,0,0-2.08,1.7,21.61,21.61,0,0,0-1.88,2.31l3.2,2.5a14,14,0,0,1,2.86-2.9,5.19,5.19,0,0,1,3.11-1,4.32,4.32,0,0,1,3,1.05,3.69,3.69,0,0,1,1.2,2.95,5.3,5.3,0,0,1-.26,1.66A6.19,6.19,0,0,1,158.3,25a13.42,13.42,0,0,1-1.49,1.71c-.61.6-1.36,1.26-2.25,2l-8.87,7.53v3.56h18.63v-4H152.06Z"/><path class="a" d="M189.6,17.1a12.93,12.93,0,0,0-4.23-2.85,13.76,13.76,0,0,0-5.45-1.05,13.38,13.38,0,0,0-9.71,3.95,12.9,12.9,0,0,0-2.8,4.24,13.36,13.36,0,0,0-1,5.13v.07a13.41,13.41,0,0,0,1,5.14,12.89,12.89,0,0,0,7,7.07,13.79,13.79,0,0,0,5.45,1,13.38,13.38,0,0,0,9.72-4,13.31,13.31,0,0,0,3.79-9.37v-.07a13.23,13.23,0,0,0-1-5.14A13,13,0,0,0,189.6,17.1Zm-1,9.49a9.67,9.67,0,0,1-.64,3.54A9.05,9.05,0,0,1,186.15,33,8.3,8.3,0,0,1,183.42,35a8.78,8.78,0,0,1-7,0,8.67,8.67,0,0,1-2.77-2,8.81,8.81,0,0,1-1.8-2.91,10,10,0,0,1-.64-3.55v-.07a9.92,9.92,0,0,1,.64-3.54A9,9,0,0,1,173.62,20a8.28,8.28,0,0,1,2.73-2,8.55,8.55,0,0,1,3.5-.71,8.4,8.4,0,0,1,3.52.73A8.64,8.64,0,0,1,187.93,23a9.8,9.8,0,0,1,.64,3.55Z"/><path class="a" d="M206.79,31.45c1.13-.93,2.11-1.78,3-2.56a15,15,0,0,0,2.1-2.29,8.85,8.85,0,0,0,1.23-2.38,8.43,8.43,0,0,0,.41-2.74v-.07a7.64,7.64,0,0,0-.63-3.15,7.07,7.07,0,0,0-1.75-2.43,7.57,7.57,0,0,0-2.68-1.56,10.21,10.21,0,0,0-3.44-.56,11.93,11.93,0,0,0-3.08.37,9.8,9.8,0,0,0-4.54,2.77,22.9,22.9,0,0,0-1.88,2.31l3.2,2.5a14,14,0,0,1,2.86-2.9,5.19,5.19,0,0,1,3.11-1,4.34,4.34,0,0,1,3,1.05,3.69,3.69,0,0,1,1.19,2.95,5.29,5.29,0,0,1-.25,1.66,6.19,6.19,0,0,1-.83,1.58,13.42,13.42,0,0,1-1.49,1.71c-.62.6-1.36,1.26-2.24,2l-8.88,7.53v3.56h18.63v-4H201.49Z"/><path class="a" d="M241.79,21.31a12.83,12.83,0,0,0-7-7.06,13.79,13.79,0,0,0-5.45-1.05,13.33,13.33,0,0,0-9.71,3.95,12.9,12.9,0,0,0-2.8,4.24,13.36,13.36,0,0,0-1,5.13v.07a13.41,13.41,0,0,0,1,5.14,12.89,12.89,0,0,0,7,7.07,13.75,13.75,0,0,0,5.45,1,13.57,13.57,0,0,0,5.44-1.06A13.42,13.42,0,0,0,239,35.89a12.9,12.9,0,0,0,2.8-4.24,13.32,13.32,0,0,0,1-5.13v-.07A13.41,13.41,0,0,0,241.79,21.31ZM238,26.59a9.67,9.67,0,0,1-.64,3.54A9.05,9.05,0,0,1,235.58,33,8.65,8.65,0,0,1,225.83,35a8.78,8.78,0,0,1-2.77-2,9,9,0,0,1-1.79-2.91,9.76,9.76,0,0,1-.64-3.55v-.07a9.71,9.71,0,0,1,.64-3.54A9,9,0,0,1,223.05,20a8.18,8.18,0,0,1,2.73-2,8.55,8.55,0,0,1,3.5-.71,8.4,8.4,0,0,1,3.52.73A8.64,8.64,0,0,1,237.36,23a9.8,9.8,0,0,1,.64,3.55Z"/><path class="a" d="M155.21,7.93a3.52,3.52,0,0,0,3.54-3.83c0-2.47-1.36-3.63-3.29-3.63a3.53,3.53,0,0,0-3.53,3.83C151.93,6.53,153,7.93,155.21,7.93Zm.12-6.2c1.25,0,1.93.87,1.93,2.48s-1,2.46-1.95,2.46c-1.29,0-1.89-1-1.89-2.53S154.34,1.73,155.33,1.73Z"/><path class="a" d="M149,7a8.34,8.34,0,0,0-.93-.13V5.27a3.86,3.86,0,0,0,.46,0,2.55,2.55,0,0,0,2.83-2.5c0-1.42-1-2.24-2.74-2.24-.75,0-1.7,0-2,0h-.84v.87c.28.05.61.1.94.13V6.82a8.21,8.21,0,0,0-.94.13v.87H149ZM148,1.69h.48c.95,0,1.36.45,1.36,1.18a1.3,1.3,0,0,1-1.44,1.27,3,3,0,0,1-.4,0Z"/><path class="a" d="M190.6.59h-1.71l-2.2,6.25a2.87,2.87,0,0,0-.57.11v.87h2.72V7a5.79,5.79,0,0,0-.76-.11l.3-.86H191l.31.86a5.88,5.88,0,0,0-.75.11v.87h2.84V7a2.64,2.64,0,0,0-.56-.11ZM188.72,4.9l.63-1.73A10.93,10.93,0,0,0,189.69,2h0A9.78,9.78,0,0,0,190,3.12l.64,1.78Z"/><path class="a" d="M183,7.93a7.13,7.13,0,0,0,2.5-.45V5l.6-.1V4h-2.91V4.9a6,6,0,0,0,.91.13V6.54a2.86,2.86,0,0,1-.91.13,2.16,2.16,0,0,1-2.31-2.43,2.3,2.3,0,0,1,2.42-2.53,3.39,3.39,0,0,1,.89.11c0,.28.07.56.13.87h1.07V.75a8.11,8.11,0,0,0-2-.27,3.72,3.72,0,0,0-4,3.89A3.31,3.31,0,0,0,183,7.93Z"/><path class="a" d="M172.57,5.31c0,1.38.51,2.62,2.8,2.62,1.92,0,3-1,3-2.89V1.59a6.45,6.45,0,0,0,.66-.12V.59h-2.81v.88a6.5,6.5,0,0,0,.77.12V5.1c0,1.23-.46,1.68-1.53,1.68S174,6.14,174,5.23V1.59a6.5,6.5,0,0,0,.77-.12V.59H171.9v.88a6.18,6.18,0,0,0,.67.12Z"/><path class="a" d="M163.53,5.07c-.11-.17-.23-.36-.36-.53a2,2,0,0,0,1.7-2c0-1.48-1-2-2.62-2-.89,0-1.9,0-2.18,0h-.83v.87c.28.05.61.1.93.13V6.82a8.34,8.34,0,0,0-.93.13v.87h3V6.94a4,4,0,0,0-.66-.12v-2h.19l1.77,3h1.84V6.93l-.71-.12Zm-1.48-1.25-.49,0V1.71a4.36,4.36,0,0,1,.54,0c.89,0,1.3.33,1.3,1S162.9,3.82,162.05,3.82Z"/><path class="a" d="M198.6,5.78h-1a8.7,8.7,0,0,0-.13.89h-1.39V1.59c.33,0,.66-.08.94-.13V.59h-3.26v.87c.28.05.61.1.93.13V6.82a8.34,8.34,0,0,0-.93.13v.87h4.86Z"/><path class="a" d="M166.56,1.73h1.1V6.82a8.34,8.34,0,0,0-.93.13v.87H170V7a8.34,8.34,0,0,0-.93-.13V1.73h1.11c0,.28.08.56.13.89h1v-2H165.4v2h1C166.49,2.29,166.54,2,166.56,1.73Z"/><path class="a" d="M124,22.86V.78C117.64,3.3,113.68,10,113.68,20.19V35.74S115,25.74,124,22.86Z"/><path class="a" d="M127.1,24.4c-3.7.74-9.13,3.71-10.72,7.89,8-9.66,24.18-.32,24.9-18.48.22-5.75.25-12.83.25-12.83A53.09,53.09,0,0,0,127.1,3.72Z"/><path class="a" d="M116.71,35.27c-.58,3.85,9.36,3.95,9.36,3.95V29.64S117.44,30.34,116.71,35.27Z"/><path class="a" d="M11.62,5.56c1.64,5.43,5.73,4.25,8.67,2.78A18.47,18.47,0,0,1,21.4,6.06,11.86,11.86,0,0,1,17,7.78c-3,.4-2.88-1-4.53-3.84S8,2.61,6.14,1.63c-.44.55-.61.75-1,1.33C6.7,4.38,10.65,2.37,11.62,5.56Z"/><polygon class="a" points="47.78 10.11 46.91 10.11 46.91 11.56 43.84 11.56 43.84 8.81 46.41 8.81 46.41 8 43.84 8 43.84 5.65 46.91 5.65 46.91 6.91 47.78 6.91 47.78 4.9 42.07 4.9 42.07 5.65 42.87 5.65 42.87 11.56 42.07 11.56 42.07 12.29 47.78 12.29 47.78 10.11"/><path class="a" d="M38,11.56H37.2V8.82h1.19a1.63,1.63,0,0,1,1.11.28,1.6,1.6,0,0,1,.3,1.16v2h1.78v-.73h-.81V10.12A2.4,2.4,0,0,0,40.57,9a1.24,1.24,0,0,0-.76-.49,2.37,2.37,0,0,0,1-.71,1.73,1.73,0,0,0,.29-1,1.65,1.65,0,0,0-.6-1.4,3.18,3.18,0,0,0-1.88-.45H35.43v.75h.8v5.91h-.8v.73H38ZM37.2,5.65h1.06a2.66,2.66,0,0,1,1.4.27,1.07,1.07,0,0,1,.41.94,1,1,0,0,1-.43.92,2.49,2.49,0,0,1-1.38.29H37.2Z"/><path class="a" d="M49.72,11.49a2.33,2.33,0,0,0,.92.69,2.84,2.84,0,0,0,1.17.26,2.57,2.57,0,0,0,1.76-.62,2.05,2.05,0,0,0,.69-1.58,1.82,1.82,0,0,0-.58-1.4A4.32,4.32,0,0,0,51.84,8l-.6-.15a2.76,2.76,0,0,1-1.09-.46.89.89,0,0,1-.29-.7,1,1,0,0,1,.36-.78,1.41,1.41,0,0,1,.93-.31A1.83,1.83,0,0,1,53,7h.72V4.9H53v.65A1.72,1.72,0,0,0,52.27,5a2.64,2.64,0,0,0-1.06-.2,2.37,2.37,0,0,0-1.62.55A1.82,1.82,0,0,0,49,6.75,1.72,1.72,0,0,0,49.48,8a3.77,3.77,0,0,0,1.61.79l.77.2a2.65,2.65,0,0,1,1.08.51,1,1,0,0,1,.33.77,1.25,1.25,0,0,1-.4.93,1.47,1.47,0,0,1-1,.37,2,2,0,0,1-1.36-.49,2.54,2.54,0,0,1-.79-1.34h-.83v2.53h.83Z"/><path class="a" d="M34.75,10h-.91A2.6,2.6,0,0,1,33,11.18a2.35,2.35,0,0,1-1.38.4,2.65,2.65,0,0,1-2-.83,3,3,0,0,1-.77-2.15,3.09,3.09,0,0,1,.74-2.16,2.57,2.57,0,0,1,2-.82,2.28,2.28,0,0,1,1.4.4,2.15,2.15,0,0,1,.8,1.17h.76V4.9h-.8v.69A2.29,2.29,0,0,0,32.75,5a3.75,3.75,0,0,0-3.92.88,3.8,3.8,0,0,0-1,2.74,3.75,3.75,0,0,0,1.06,2.75,3.6,3.6,0,0,0,2.7,1.09,3.33,3.33,0,0,0,2.08-.65A3.18,3.18,0,0,0,34.75,10Z"/><path class="a" d="M59,12.44a3.33,3.33,0,0,0,2.08-.65A3.18,3.18,0,0,0,62.18,10h-.91a2.67,2.67,0,0,1-.88,1.22,2.35,2.35,0,0,1-1.38.4,2.65,2.65,0,0,1-2-.83,3,3,0,0,1-.77-2.15A3,3,0,0,1,57,6.44a2.56,2.56,0,0,1,2-.82,2.28,2.28,0,0,1,1.4.4,2.2,2.2,0,0,1,.8,1.17h.76V4.9h-.8v.69A2.36,2.36,0,0,0,60.18,5a3.75,3.75,0,0,0-3.92.88,3.8,3.8,0,0,0-1,2.74,3.75,3.75,0,0,0,1.06,2.75A3.57,3.57,0,0,0,59,12.44Z"/><polygon class="a" points="32.67 23.41 30.12 23.41 30.12 17.31 31.08 17.31 31.08 16.54 28.29 16.54 28.29 17.31 29.11 17.31 29.11 23.41 28.29 23.41 28.29 24.17 33.57 24.17 33.57 21.91 32.67 21.91 32.67 23.41"/><path class="a" d="M40.28,24.17h.86V21.58H42v-.82H38.37v.82h1.91a2.66,2.66,0,0,1-.9,1.38,2.57,2.57,0,0,1-1.57.47,2.73,2.73,0,0,1-2.07-.87,3.34,3.34,0,0,1,0-4.41,2.72,2.72,0,0,1,2.07-.86,2.47,2.47,0,0,1,1.55.48,2.74,2.74,0,0,1,.9,1.41H41V16.54h-.84v.78a3.13,3.13,0,0,0-1.06-.69,3.22,3.22,0,0,0-1.24-.23A3.79,3.79,0,0,0,35,17.52a3.92,3.92,0,0,0-1.1,2.84A3.88,3.88,0,0,0,35,23.19a3.79,3.79,0,0,0,2.81,1.13,3.43,3.43,0,0,0,1.31-.24,3.72,3.72,0,0,0,1.16-.74Z"/><path class="a" d="M25.08,17.31H26v-.77H22.54v.77h.93l-2.16,6.1h-.72v.76h2.6v-.76h-.92l.6-1.82h2.61l.6,1.82h-.91v.76h2.71v-.76h-.73Zm-2,3.52L24,18.17l.11-.37c0-.1.05-.21.07-.31a2.7,2.7,0,0,0,.15.61.41.41,0,0,1,0,.07l.92,2.66Z"/><path class="a" d="M55.59,21.92a2.31,2.31,0,0,0-.22-1.19,1.32,1.32,0,0,0-.77-.5,2.48,2.48,0,0,0,1-.73,1.7,1.7,0,0,0,.31-1.05A1.67,1.67,0,0,0,55.27,17a3.24,3.24,0,0,0-1.94-.47H50.07v.77h.83v6.1h-.83v.76h2.67v-.76h-.83V20.58h1.22a1.63,1.63,0,0,1,1.14.29,1.65,1.65,0,0,1,.31,1.2v2.1h1.85v-.76h-.84Zm-1.17-2.41a2.61,2.61,0,0,1-1.42.3H51.91v-2.5H53a2.69,2.69,0,0,1,1.44.28,1.11,1.11,0,0,1,.42,1A1.07,1.07,0,0,1,54.42,19.51Z"/><path class="a" d="M44.56,21.59h2.61l.6,1.82h-.91v.76h2.71v-.76h-.73l-2.07-6.1h.94v-.77H44.23v.77h.93L43,23.41h-.72v.76h2.6v-.76H44Zm1.15-3.42.11-.37c0-.1,0-.21.07-.31a2.7,2.7,0,0,0,.15.61.41.41,0,0,1,0,.07L47,20.83H44.8Z"/><polygon class="a" points="69.36 21.91 68.47 21.91 68.47 23.41 65.3 23.41 65.3 20.57 67.95 20.57 67.95 19.73 65.3 19.73 65.3 17.31 68.47 17.31 68.47 18.61 69.36 18.61 69.36 16.54 63.47 16.54 63.47 17.31 64.29 17.31 64.29 23.41 63.47 23.41 63.47 24.17 69.36 24.17 69.36 21.91"/><polygon class="a" points="60.26 17.31 61.1 17.31 59.47 22.3 57.91 17.31 58.66 17.31 58.66 16.54 56.14 16.54 56.14 17.31 56.88 17.31 59.14 24.3 59.75 24.3 62.05 17.31 62.8 17.31 62.8 16.54 60.26 16.54 60.26 17.31"/><path class="a" d="M55.3,28.1a2,2,0,0,0-.81-.8A2.34,2.34,0,0,0,53.35,27a2.38,2.38,0,0,0-1.15.27,2.05,2.05,0,0,0-.8.8,2.17,2.17,0,0,0-.26.66,6.73,6.73,0,0,0-.07,1.18v1.88A6.73,6.73,0,0,0,51.14,33a2.39,2.39,0,0,0,.26.66,2,2,0,0,0,.81.81,2.34,2.34,0,0,0,1.14.27,2.24,2.24,0,0,0,1.24-.34,2.12,2.12,0,0,0,.81-1,2.05,2.05,0,0,0,.16-.55,5.76,5.76,0,0,0,0-.82V29.72a6,6,0,0,0-.07-1A2.17,2.17,0,0,0,55.3,28.1Zm-.62,3.7a6.09,6.09,0,0,1,0,.87,1.51,1.51,0,0,1-.15.48,1.38,1.38,0,0,1-.47.54,1.34,1.34,0,0,1-.68.19,1.29,1.29,0,0,1-.68-.19,1.3,1.3,0,0,1-.47-.54,1.53,1.53,0,0,1-.14-.47,6,6,0,0,1,0-.88V30a5.84,5.84,0,0,1,0-.87,1.51,1.51,0,0,1,.14-.48,1.3,1.3,0,0,1,.48-.53,1.2,1.2,0,0,1,.67-.2,1.23,1.23,0,0,1,.74.24,1.29,1.29,0,0,1,.47.63,1.6,1.6,0,0,1,.1.43,7.08,7.08,0,0,1,0,.78Z"/><path class="a" d="M44.12,28.1a2.05,2.05,0,0,0-.8-.8A2.41,2.41,0,0,0,42.17,27,2.34,2.34,0,0,0,41,27.3a2.14,2.14,0,0,0-.81.8,1.93,1.93,0,0,0-.25.66,6.5,6.5,0,0,0-.08,1.18v1.88A6.5,6.5,0,0,0,40,33a2.1,2.1,0,0,0,.25.66,2.17,2.17,0,0,0,.81.81,2.34,2.34,0,0,0,1.14.27,2.28,2.28,0,0,0,1.25-.34,2,2,0,0,0,.8-1,2.51,2.51,0,0,0,.17-.55,6,6,0,0,0,0-.82V29.72a5,5,0,0,0-.07-1A2.17,2.17,0,0,0,44.12,28.1Zm-.62,3.7a6.09,6.09,0,0,1,0,.87,1.51,1.51,0,0,1-.15.48,1.24,1.24,0,0,1-1.15.73,1.25,1.25,0,0,1-.67-.19,1.4,1.4,0,0,1-.48-.54,1.86,1.86,0,0,1-.14-.47,6.35,6.35,0,0,1,0-.88V30a6.18,6.18,0,0,1,0-.87,1.83,1.83,0,0,1,.14-.48,1.3,1.3,0,0,1,.48-.53,1.2,1.2,0,0,1,.67-.2,1.21,1.21,0,0,1,.74.24,1.29,1.29,0,0,1,.47.63,1.6,1.6,0,0,1,.1.43,7.08,7.08,0,0,1,0,.78Z"/><path class="a" d="M49.18,33.84H46.61l2.6-3a3.61,3.61,0,0,0,.6-.92A2.27,2.27,0,0,0,50,29a1.84,1.84,0,0,0-.59-1.43A2.14,2.14,0,0,0,47.9,27a2.29,2.29,0,0,0-1.74.64,2.6,2.6,0,0,0-.6,1.84v.15c0,.05,0,.14,0,.26h.9a.66.66,0,0,1,0-.15c0-.05,0-.13,0-.23a2,2,0,0,1,.34-1.26,1.23,1.23,0,0,1,1-.41,1.34,1.34,0,0,1,.91.29,1,1,0,0,1,.33.81,2,2,0,0,1-.14.72,2.72,2.72,0,0,1-.42.68l-3,3.54v.71H50.1V32.49h-.92Z"/><path class="a" d="M38,33.84H35.43l2.6-3a4,4,0,0,0,.61-.92,2.43,2.43,0,0,0,.19-.94,1.87,1.87,0,0,0-.58-1.43A2.16,2.16,0,0,0,36.73,27a2.26,2.26,0,0,0-1.74.64,2.56,2.56,0,0,0-.61,1.84v.15c0,.05,0,.14,0,.26h.9s0-.09,0-.15v-.23a2,2,0,0,1,.33-1.26,1.23,1.23,0,0,1,1-.41,1.34,1.34,0,0,1,.91.29,1,1,0,0,1,.33.81,1.78,1.78,0,0,1-.14.72,2.24,2.24,0,0,1-.42.68l-3,3.54v.71h4.58V32.49H38Z"/><path class="a" d="M9.91,23.35c.56-.84,1-1.54,3.31.2a4.31,4.31,0,0,0,5.32-.5c-.1-.64-.17-1.29-.23-1.95a3.76,3.76,0,0,1-4.43.87,8.92,8.92,0,0,0-1.82-1.13c.11-.15.22-.29.33-.46.59-.95,1.16-2,1.74-3a8.09,8.09,0,0,1,4.09,1.12c0-.63,0-1.25.08-1.87a9.66,9.66,0,0,0-3.07-1,17.55,17.55,0,0,1,2-2.59,11,11,0,0,1,1.36,1.11c.1-.59.22-1.18.36-1.76s.26-1,.4-1.49a2.9,2.9,0,0,0-2,.12,5,5,0,0,0-1.25-.51c-2-.55-6.52,1.65-7.51-.53-.6-1.34-1-2.72-2.45-3.57a3.08,3.08,0,0,0-3.26.16A28.69,28.69,0,0,0,1.72,9.31C2.88,8,4.46,7.34,5.48,8.13s1.25,2.06,1.59,2.95c1.27,3.39,6,.64,8.55,1.21A17.21,17.21,0,0,0,13,15.59l-.54.05c-2,.25-3.83-.92-4.6.06C6.89,16.87,6,19.53,5.29,17.85c-.28-.65-.71-1.44-1.7-1.44A20.76,20.76,0,0,0,.46,13.85C.35,14.43.27,15,.2,15.61a12.4,12.4,0,0,1,1.29,1.17c-.5.13-1,.29-1.44.45,0,.54,0,1.07,0,1.61,0,.14,0,.28,0,.42A9.3,9.3,0,0,1,3,18.44c.14.19.28.38.4.56,1.4,2.06,3.31,3.55,5.16,3.69a2,2,0,0,1-1.71.87c-2.09,0-5.15-2.43-6.78-3.84,0,.69.07,1.38.14,2.06,1.62,1.61,5.23,3.61,6.64,3.61A3.48,3.48,0,0,0,9.91,23.35Zm-1.34-5.9c.5-.85,1.77,0,3.29,0-.27.49-.49.89-.65,1.14-1.61,2.53-3.1,2.24-4.43,1.16A8.77,8.77,0,0,0,8.57,17.45Z"/><path class="a" d="M13.53,32.83a7.11,7.11,0,0,1,.59-1.57A20.5,20.5,0,0,1,16,29.85h.15a15.93,15.93,0,0,1,4.86,1c-.28-.57-.55-1.15-.79-1.74h0c-.17-.43-.33-.85-.49-1.29l0,0,0,0c-.24-.68-.46-1.37-.64-2.08l-1.31.82a6.13,6.13,0,0,0-2.64-.8c-1.27-.06-2.69.53-3.79.42-3.09-.31-5.43-1-6.21,3.91a7,7,0,0,0-2.38.72c.15.3.32.6.48.89h0l.15.26.2.37h0c.18.33.37.67.57,1a2.2,2.2,0,0,0,2.13-1.43A9.53,9.53,0,0,1,10.05,33a19,19,0,0,1-3.7,3.31q.48.57,1,1.11a10.61,10.61,0,0,0,2.81-2.18c.47-.53.9-1,1.32-1.44l0,0c-.07.4-.13.83-.19,1.29a8.1,8.1,0,0,1-2.18,4.06q.55.49,1.14,1A5.91,5.91,0,0,0,13,35.88c0-.38.08-.73.13-1.06,2.8,1.43,5.79-.37,9.29-1.42-.32-.52-.64-1-.93-1.58C19.16,32.66,16.17,34.28,13.53,32.83Zm-2.22-5c1.81.05,2.79-.65,4.21-.32l.52.15-.64.44c-1.58,0-2.51.68-3.16,2.5-.34.31-.66.64-1,1A12.8,12.8,0,0,0,6.68,30C7.32,26.92,9,27.77,11.31,27.84Z"/><path class="a" d="M82.68,1.39C82.33,1,82,.56,81.57.16L69.76,6.83c.24.48.47,1,.68,1.47Z"/><path class="a" d="M72.19,14.36l15.43-4.15c-.17-.52-.36-1-.56-1.53L71.87,12.77C72,13.29,72.1,13.82,72.19,14.36Z"/><path class="a" d="M71.55,26.16l15.16,3.65c.22-.5.42-1,.61-1.52l-15.38-3.7C71.83,25.12,71.7,25.65,71.55,26.16Z"/><path class="a" d="M71.49,11.28l14-5.8c-.27-.47-.56-.94-.86-1.4L71,9.73C71.17,10.24,71.34,10.76,71.49,11.28Z"/><path class="a" d="M72.52,17.4l16.24-2.32c-.07-.53-.16-1.07-.27-1.59l-16.1,2.3C72.45,16.32,72.49,16.86,72.52,17.4Z"/><path class="a" d="M72.2,23.22,88.33,25c.12-.53.22-1.06.31-1.6L72.42,21.61C72.37,22.15,72.29,22.68,72.2,23.22Z"/><path class="a" d="M70.59,29l13.72,5.11c.31-.45.6-.92.89-1.39L71.14,27.49C71,28,70.79,28.51,70.59,29Z"/><path class="a" d="M69.17,32l11.7,6.26c.4-.39.79-.8,1.17-1.21L69.92,30.54C69.68,31,69.44,31.5,69.17,32Z"/><path class="a" d="M89,18.36l-16.46.23a2,2,0,0,1,0,.25c0,.46,0,.91,0,1.37L89,20q0-.57,0-1.14C89,18.68,89,18.52,89,18.36Z"/><path class="a" d="M335.2,12.52a6.23,6.23,0,0,1,0,.78.64.64,0,0,1-.25.4.9.9,0,0,1-.59.16,1,1,0,0,1-.62-.17.72.72,0,0,1-.28-.45,4.21,4.21,0,0,1,0-.77V10h-.93v2.46a5.62,5.62,0,0,0,.09,1.17,1.24,1.24,0,0,0,.26.51,1.41,1.41,0,0,0,.54.4,2.59,2.59,0,0,0,1,.15,2.44,2.44,0,0,0,.89-.14,1.28,1.28,0,0,0,.54-.38,1.22,1.22,0,0,0,.28-.57,6.2,6.2,0,0,0,.08-1.18V10h-.93Z"/><polygon class="a" points="340.78 9.97 339.91 9.97 339.91 13.05 338.02 9.97 337.12 9.97 337.12 14.58 337.98 14.58 337.98 11.57 339.84 14.58 340.78 14.58 340.78 9.97"/><rect class="a" x="341.73" y="9.97" width="0.93" height="4.61"/><path class="a" d="M345.86,10h-1l-1.8,4.61h1l.38-1.05h1.84l.4,1.05h1Zm-1.12,2.79.62-1.71.63,1.71Z"/><path class="a" d="M344.64,9.72a.32.32,0,0,1,.06-.22.2.2,0,0,1,.15-.06,1.56,1.56,0,0,1,.43.11,2.43,2.43,0,0,0,.36.13.75.75,0,0,0,.21,0,.5.5,0,0,0,.4-.18,1,1,0,0,0,.16-.61H346a.29.29,0,0,1-.09.21.21.21,0,0,1-.17.07,1.17,1.17,0,0,1-.39-.11,2.45,2.45,0,0,0-.34-.14.68.68,0,0,0-.21,0,.57.57,0,0,0-.41.17.78.78,0,0,0-.16.51.57.57,0,0,0,0,.12Z"/><path class="a" d="M351.87,10.52a2.15,2.15,0,0,0-1.63-.63,2.57,2.57,0,0,0-1,.18,1.72,1.72,0,0,0-.6.42,2.43,2.43,0,0,0-.43.63A2.93,2.93,0,0,0,348,12.3a2.36,2.36,0,0,0,.61,1.73,2.42,2.42,0,0,0,3.26,0,2.43,2.43,0,0,0,.61-1.75A2.44,2.44,0,0,0,351.87,10.52Zm-.7,2.94a1.26,1.26,0,0,1-1.84,0,1.73,1.73,0,0,1-.36-1.19,1.78,1.78,0,0,1,.35-1.19,1.21,1.21,0,0,1,.93-.39,1.19,1.19,0,0,1,.93.39,1.73,1.73,0,0,1,.34,1.18A1.77,1.77,0,0,1,351.17,13.46Z"/><polygon class="a" points="358.51 13.8 355.93 13.8 355.93 12.55 358.25 12.55 358.25 11.77 355.93 11.77 355.93 10.75 358.42 10.75 358.42 9.97 355 9.97 355 14.58 358.51 14.58 358.51 13.8"/><path class="a" d="M359.64,14.11a1.5,1.5,0,0,0,.54.4,2.59,2.59,0,0,0,1,.15,2.44,2.44,0,0,0,.89-.14,1.28,1.28,0,0,0,.54-.38,1.22,1.22,0,0,0,.28-.57,6.2,6.2,0,0,0,.08-1.18V10H362v2.55a6.23,6.23,0,0,1,0,.78.64.64,0,0,1-.25.4.9.9,0,0,1-.59.16,1,1,0,0,1-.62-.17.72.72,0,0,1-.28-.45,4.21,4.21,0,0,1,0-.77V10h-.93v2.46a5.62,5.62,0,0,0,.09,1.17A1.24,1.24,0,0,0,359.64,14.11Z"/><path class="a" d="M367,12.93a1.93,1.93,0,0,0-.49-.38,1.47,1.47,0,0,0,.91-.43,1.39,1.39,0,0,0,.1-1.58,1,1,0,0,0-.53-.44,3.2,3.2,0,0,0-1.08-.13h-2v4.61h.93V12.66h.19a1.38,1.38,0,0,1,.47.05.7.7,0,0,1,.28.19,6,6,0,0,1,.49.68l.67,1h1.12l-.57-.9A4.42,4.42,0,0,0,367,12.93Zm-1.43-1h-.69V10.75h.73c.38,0,.6,0,.68,0a.52.52,0,0,1,.35.18.55.55,0,0,1,.12.37.63.63,0,0,1-.09.35.46.46,0,0,1-.26.19A3.37,3.37,0,0,1,365.57,11.92Z"/><path class="a" d="M372.88,12.28a2.43,2.43,0,0,0-.61-1.76,2.17,2.17,0,0,0-1.63-.63,2.53,2.53,0,0,0-1,.18,1.72,1.72,0,0,0-.6.42,2.43,2.43,0,0,0-.43.63,2.93,2.93,0,0,0-.21,1.18A2.36,2.36,0,0,0,369,14a2.42,2.42,0,0,0,3.26,0A2.43,2.43,0,0,0,372.88,12.28Zm-1.32,1.18a1.14,1.14,0,0,1-.91.4,1.18,1.18,0,0,1-.92-.4,1.73,1.73,0,0,1-.36-1.19,1.78,1.78,0,0,1,.35-1.19,1.21,1.21,0,0,1,.93-.39,1.17,1.17,0,0,1,.92.39,1.68,1.68,0,0,1,.35,1.18A1.72,1.72,0,0,1,371.56,13.46Z"/><path class="a" d="M374.54,12.84h.61a6,6,0,0,0,1-.06,1.47,1.47,0,0,0,.48-.22,1.18,1.18,0,0,0,.39-.46,1.52,1.52,0,0,0,.15-.71,1.48,1.48,0,0,0-.26-.9,1.22,1.22,0,0,0-.67-.45,5.07,5.07,0,0,0-1.1-.07h-1.5v4.61h.93Zm0-2.09H375a4.64,4.64,0,0,1,.67,0A.68.68,0,0,1,376,11a.57.57,0,0,1,.14.41.61.61,0,0,1-.1.36.66.66,0,0,1-.29.23,2.42,2.42,0,0,1-.74.07h-.51Z"/><polygon class="a" points="381.41 13.8 378.84 13.8 378.84 12.55 381.15 12.55 381.15 11.77 378.84 11.77 378.84 10.75 381.33 10.75 381.33 9.97 377.91 9.97 377.91 14.58 381.41 14.58 381.41 13.8"/><rect class="a" x="382.17" y="9.97" width="0.93" height="4.61"/><path class="a" d="M387.14,14.58h1L386.3,10h-1l-1.8,4.61h1l.38-1.05h1.85Zm-2-1.82.62-1.71.64,1.71Z"/><polygon class="a" points="332.52 29.84 333.13 29.84 333.13 27.75 335.29 27.75 335.29 27.2 333.13 27.2 333.13 25.77 335.63 25.77 335.63 25.23 332.52 25.23 332.52 29.84"/><path class="a" d="M338.48,28.29a1.58,1.58,0,0,1-.1.65.72.72,0,0,1-.31.36.91.91,0,0,1-.48.13.69.69,0,0,1-.43-.13.56.56,0,0,1-.22-.35,2.63,2.63,0,0,1,0-.6V26.5h-.57v2.07a3.07,3.07,0,0,0,0,.53,1,1,0,0,0,.17.42.94.94,0,0,0,.38.28,1.34,1.34,0,0,0,.56.12,1.23,1.23,0,0,0,1.06-.57v.49h.5V26.5h-.56Z"/><path class="a" d="M342.44,26.82a.86.86,0,0,0-.38-.28,1.3,1.3,0,0,0-.56-.11,1.19,1.19,0,0,0-1.06.55V26.5h-.51v3.34h.57V28a1.1,1.1,0,0,1,.26-.87.87.87,0,0,1,.62-.23.74.74,0,0,1,.4.1.54.54,0,0,1,.23.27,1.41,1.41,0,0,1,.07.52v2h.56V27.79a3.37,3.37,0,0,0,0-.55A1.13,1.13,0,0,0,342.44,26.82Z"/><path class="a" d="M345.64,26.89a1.24,1.24,0,0,0-.38-.34,1.19,1.19,0,0,0-.54-.12,1.39,1.39,0,0,0-.75.21,1.44,1.44,0,0,0-.5.63,2.38,2.38,0,0,0-.16.91,2.13,2.13,0,0,0,.18.9,1.45,1.45,0,0,0,.52.62,1.36,1.36,0,0,0,.73.22,1,1,0,0,0,.94-.5v.42h.52V25.23h-.56Zm-.21,2.26a.81.81,0,0,1-1.27,0,1.44,1.44,0,0,1-.27-.95,1.54,1.54,0,0,1,.25-1,.8.8,0,0,1,.63-.3.78.78,0,0,1,.65.32,1.53,1.53,0,0,1,.27,1A1.41,1.41,0,0,1,345.43,29.15Z"/><path class="a" d="M348.45,26.43a1.55,1.55,0,0,0-1.05.37,1.69,1.69,0,0,0-.52,1.37,1.83,1.83,0,0,0,.43,1.3,1.51,1.51,0,0,0,1.14.45,1.63,1.63,0,0,0,.81-.21,1.34,1.34,0,0,0,.56-.57,2.19,2.19,0,0,0,.19-1,1.67,1.67,0,0,0-.44-1.25A1.48,1.48,0,0,0,348.45,26.43Zm.7,2.7a.88.88,0,0,1-.7.32.9.9,0,0,1-.71-.32,1.45,1.45,0,0,1-.28-1,1.47,1.47,0,0,1,.28-1,.92.92,0,0,1,.71-.31.9.9,0,0,1,.7.31,1.39,1.39,0,0,1,.28.94A1.43,1.43,0,0,1,349.15,29.13Z"/><path class="a" d="M355.21,27.41a6.08,6.08,0,0,0-1-.29,2.39,2.39,0,0,1-.92-.33.52.52,0,0,1-.18-.41.62.62,0,0,1,.26-.49,1.3,1.3,0,0,1,.8-.2,1.24,1.24,0,0,1,.81.22,1,1,0,0,1,.32.66l.58,0a1.34,1.34,0,0,0-.23-.73,1.31,1.31,0,0,0-.6-.48,2.29,2.29,0,0,0-.9-.17,2.15,2.15,0,0,0-.85.16,1.27,1.27,0,0,0-.58.46,1.17,1.17,0,0,0-.19.65,1.06,1.06,0,0,0,.16.58,1.3,1.3,0,0,0,.49.43,4.28,4.28,0,0,0,.89.28c.42.11.7.18.82.23a1,1,0,0,1,.42.27.66.66,0,0,1,0,.77.82.82,0,0,1-.4.29,1.63,1.63,0,0,1-.61.1,1.76,1.76,0,0,1-.71-.13,1,1,0,0,1-.46-.36,1.33,1.33,0,0,1-.2-.57l-.57.05a1.59,1.59,0,0,0,.25.83,1.46,1.46,0,0,0,.67.55,2.67,2.67,0,0,0,1.05.18,2.1,2.1,0,0,0,.88-.18,1.34,1.34,0,0,0,.61-.51,1.24,1.24,0,0,0,.21-.69,1.14,1.14,0,0,0-.19-.66A1.47,1.47,0,0,0,355.21,27.41Z"/><path class="a" d="M358.12,26.43a1.51,1.51,0,0,0-1.05.37,1.69,1.69,0,0,0-.52,1.37,1.79,1.79,0,0,0,.43,1.3,1.51,1.51,0,0,0,1.14.45,1.57,1.57,0,0,0,.8-.21,1.31,1.31,0,0,0,.57-.57,2.19,2.19,0,0,0,.19-1,1.72,1.72,0,0,0-.44-1.25A1.48,1.48,0,0,0,358.12,26.43Zm.7,2.7a.94.94,0,0,1-1.41,0,1.45,1.45,0,0,1-.28-1,1.47,1.47,0,0,1,.28-1,1,1,0,0,1,1.41,0,1.44,1.44,0,0,1,.28.94A1.49,1.49,0,0,1,358.82,29.13Z"/><path class="a" d="M362.24,29.25a.82.82,0,0,1-.56.2.85.85,0,0,1-.67-.3,1.53,1.53,0,0,1-.26-1,1.44,1.44,0,0,1,.27-1,.86.86,0,0,1,.69-.31.77.77,0,0,1,.49.17,1,1,0,0,1,.28.51l.55-.09a1.33,1.33,0,0,0-.45-.78,1.39,1.39,0,0,0-.89-.27,1.55,1.55,0,0,0-.79.2,1.22,1.22,0,0,0-.55.61,2.28,2.28,0,0,0-.18.94,1.82,1.82,0,0,0,.42,1.29,1.41,1.41,0,0,0,1.1.45,1.35,1.35,0,0,0,.92-.33,1.43,1.43,0,0,0,.47-.9l-.56-.07A1,1,0,0,1,362.24,29.25Z"/><rect class="a" x="363.57" y="26.5" width="0.57" height="3.34"/><rect class="a" x="363.57" y="25.23" width="0.57" height="0.65"/><path class="a" d="M367.7,28.44v-.75a2.94,2.94,0,0,0,0-.52.79.79,0,0,0-.18-.39.82.82,0,0,0-.39-.25,1.94,1.94,0,0,0-.69-.1,2.49,2.49,0,0,0-.76.11,1.11,1.11,0,0,0-.5.34,1.34,1.34,0,0,0-.25.58l.55.07a.91.91,0,0,1,.28-.49,1,1,0,0,1,.6-.14.92.92,0,0,1,.64.19.6.6,0,0,1,.16.49v.14a5.2,5.2,0,0,1-1,.2,5.08,5.08,0,0,0-.51.08,1.34,1.34,0,0,0-.4.19,1,1,0,0,0-.3.32,1,1,0,0,0-.11.45.89.89,0,0,0,.3.69,1.2,1.2,0,0,0,.85.27,1.8,1.8,0,0,0,.62-.11,2.13,2.13,0,0,0,.6-.38,1.17,1.17,0,0,0,.12.41h.59a1.19,1.19,0,0,1-.14-.4A6.72,6.72,0,0,1,367.7,28.44Zm-.57-.07a1.41,1.41,0,0,1-.09.57.84.84,0,0,1-.38.39,1.11,1.11,0,0,1-.58.14.73.73,0,0,1-.5-.15.45.45,0,0,1-.17-.37.5.5,0,0,1,.07-.27.62.62,0,0,1,.23-.19,2,2,0,0,1,.49-.11,4.67,4.67,0,0,0,.93-.21Z"/><rect class="a" x="368.56" y="25.23" width="0.57" height="4.61"/><polygon class="a" points="372.49 27.73 375.04 27.73 375.04 27.19 372.49 27.19 372.49 25.77 375.22 25.77 375.22 25.23 371.88 25.23 371.88 29.84 375.32 29.84 375.32 29.3 372.49 29.3 372.49 27.73"/><path class="a" d="M378.22,28.29a1.8,1.8,0,0,1-.09.65.74.74,0,0,1-.32.36.88.88,0,0,1-.47.13.67.67,0,0,1-.43-.13.57.57,0,0,1-.23-.35,3.77,3.77,0,0,1,0-.6V26.5h-.57v2.07a2.3,2.3,0,0,0,0,.53,1,1,0,0,0,.17.42.88.88,0,0,0,.38.28,1.3,1.3,0,0,0,.55.12,1.22,1.22,0,0,0,1.06-.57v.49h.51V26.5h-.57Z"/><path class="a" d="M380.54,26.54a1.41,1.41,0,0,0-.36.47V26.5h-.51v3.34h.56V28.09a2.28,2.28,0,0,1,.1-.66.62.62,0,0,1,.21-.31.57.57,0,0,1,.33-.11.84.84,0,0,1,.42.12l.19-.52a1.09,1.09,0,0,0-.58-.18A.59.59,0,0,0,380.54,26.54Z"/><path class="a" d="M383.18,26.43a1.51,1.51,0,0,0-1.05.37,1.69,1.69,0,0,0-.52,1.37,1.79,1.79,0,0,0,.43,1.3,1.51,1.51,0,0,0,1.14.45,1.57,1.57,0,0,0,.8-.21,1.31,1.31,0,0,0,.57-.57,2.33,2.33,0,0,0,.19-1,1.72,1.72,0,0,0-.44-1.25A1.48,1.48,0,0,0,383.18,26.43Zm.7,2.7a.94.94,0,0,1-1.41,0,1.39,1.39,0,0,1-.28-1,1.41,1.41,0,0,1,.28-1,1,1,0,0,1,1.41,0,1.44,1.44,0,0,1,.28.94A1.49,1.49,0,0,1,383.88,29.13Z"/><path class="a" d="M387.64,26.65a1.3,1.3,0,0,0-.75-.22,1.19,1.19,0,0,0-.56.12,1.37,1.37,0,0,0-.41.39V26.5h-.52v4.62H386V29.5a1.11,1.11,0,0,0,.37.3,1.07,1.07,0,0,0,.51.12,1.41,1.41,0,0,0,.73-.22,1.39,1.39,0,0,0,.54-.63,2.25,2.25,0,0,0,.18-.92,2.3,2.3,0,0,0-.16-.88A1.35,1.35,0,0,0,387.64,26.65Zm-.19,2.48a.8.8,0,0,1-1.27,0,1.4,1.4,0,0,1-.26-.95,1.53,1.53,0,0,1,.27-1,.81.81,0,0,1,.64-.34.79.79,0,0,1,.63.32,1.44,1.44,0,0,1,.26.95A1.5,1.5,0,0,1,387.45,29.13Z"/><path class="a" d="M390.36,26.43a1.46,1.46,0,0,0-1.13.46,1.85,1.85,0,0,0-.43,1.31,1.8,1.8,0,0,0,.42,1.27,1.55,1.55,0,0,0,1.17.45,1.51,1.51,0,0,0,.95-.29,1.44,1.44,0,0,0,.52-.79l-.59-.07a1.09,1.09,0,0,1-.35.52.84.84,0,0,1-.53.16,1,1,0,0,1-.7-.29,1.33,1.33,0,0,1-.31-.84h2.49v-.15a1.84,1.84,0,0,0-.42-1.29A1.43,1.43,0,0,0,390.36,26.43Zm-.95,1.42a1,1,0,0,1,.3-.7.89.89,0,0,1,.65-.26.86.86,0,0,1,.7.33,1.14,1.14,0,0,1,.22.63Z"/><path class="a" d="M394.7,26.5v1.79a1.77,1.77,0,0,1-.1.65.72.72,0,0,1-.31.36.91.91,0,0,1-.48.13.69.69,0,0,1-.43-.13.62.62,0,0,1-.23-.35,3.77,3.77,0,0,1,0-.6V26.5h-.57v2.07a3.07,3.07,0,0,0,0,.53,1,1,0,0,0,.17.42.94.94,0,0,0,.38.28,1.31,1.31,0,0,0,.56.12,1.23,1.23,0,0,0,1.06-.57v.49h.5V26.5Z"/><path class="a" d="M267.39,40.12h59.88V0H267.39ZM268,.59h58.71V39.53H268Z"/><polygon class="a" points="296.07 8.91 297.32 7.99 298.57 8.91 298.1 7.43 299.37 6.52 297.8 6.52 297.32 5.02 296.84 6.52 295.28 6.52 296.55 7.43 296.07 8.91"/><polygon class="a" points="289.6 10.65 290.85 9.73 292.1 10.65 291.62 9.17 292.89 8.26 291.32 8.26 290.85 6.76 290.37 8.26 288.8 8.26 290.07 9.17 289.6 10.65"/><polygon class="a" points="286.11 11.51 285.63 13.01 284.06 13.01 285.33 13.92 284.86 15.39 286.11 14.48 287.36 15.39 286.88 13.92 288.15 13.01 286.59 13.01 286.11 11.51"/><polygon class="a" points="284.37 20.95 285.62 21.86 285.15 20.39 286.42 19.47 284.85 19.47 284.37 17.97 283.89 19.47 282.33 19.47 283.6 20.39 283.12 21.86 284.37 20.95"/><polygon class="a" points="286.59 25.96 286.11 24.46 285.63 25.96 284.06 25.96 285.33 26.87 284.86 28.35 286.11 27.43 287.36 28.35 286.88 26.87 288.15 25.96 286.59 25.96"/><polygon class="a" points="291.33 30.7 290.86 29.21 290.38 30.71 288.81 30.7 290.08 31.62 289.61 33.09 290.86 32.18 292.11 33.09 291.63 31.62 292.9 30.7 291.33 30.7"/><polygon class="a" points="297.8 32.42 297.32 30.93 296.84 32.43 295.28 32.42 296.55 33.34 296.07 34.81 297.32 33.9 298.57 34.81 298.1 33.34 299.37 32.42 297.8 32.42"/><polygon class="a" points="304.27 30.7 303.79 29.21 303.31 30.71 301.74 30.7 303.01 31.62 302.54 33.09 303.79 32.18 305.04 33.09 304.56 31.62 305.83 30.7 304.27 30.7"/><polygon class="a" points="309.02 25.96 308.54 24.46 308.06 25.96 306.49 25.96 307.76 26.87 307.29 28.35 308.54 27.43 309.79 28.35 309.31 26.87 310.58 25.96 309.02 25.96"/><polygon class="a" points="310.74 19.45 310.25 17.96 309.78 19.46 308.21 19.45 309.48 20.37 309.01 21.84 310.25 20.93 311.51 21.84 311.03 20.37 312.3 19.45 310.74 19.45"/><polygon class="a" points="307.29 15.37 308.54 14.46 309.79 15.37 309.31 13.9 310.58 12.99 309.02 12.99 308.54 11.49 308.06 12.99 306.49 12.99 307.76 13.9 307.29 15.37"/><polygon class="a" points="303.81 6.76 303.33 8.26 301.76 8.26 303.03 9.17 302.56 10.65 303.81 9.73 305.06 10.65 304.58 9.17 305.85 8.26 304.29 8.26 303.81 6.76"/></svg>